<?xml version="1.0" encoding="UTF-8"?>
<svg width="378px" height="58px" viewBox="0 0 378 58" version="1.1" xmlns="http://www.w3.org/2000/svg" xmlns:xlink="http://www.w3.org/1999/xlink">
    <!-- Generator: Sketch 50.2 (55047) - http://www.bohemiancoding.com/sketch -->
    <title>Group</title>
    <desc>Created with Sketch.</desc>
    <defs>
        <polygon id="path-1" points="0.15125003 0.0466688538 115.308 0.0466688538 115.308 53.9997603 0.15125003 53.9997603"></polygon>
        <polygon id="path-3" points="0 0.0411 37.2707 0.0411 37.2707 37.3131 0 37.3131"></polygon>
    </defs>
    <g id="Login" stroke="none" stroke-width="1" fill="none" fill-rule="evenodd">
        <g id="Group">
            <path d="M70.0714,3.8163 C65.4544,3.8163 61.0924,5.6143 57.7854,8.8773 C54.4794,12.1413 52.6594,16.4483 52.6594,21.0063 C52.6594,30.4053 60.6334,38.3463 70.0714,38.3463 C79.5094,38.3463 87.4834,30.4053 87.4834,21.0063 C87.4834,16.4483 85.6624,12.1413 82.3574,8.8773 C79.0504,5.6143 74.6884,3.8163 70.0714,3.8163 M78.5364,29.5363 C76.2764,31.9043 73.2704,33.2093 70.0714,33.2093 C66.8724,33.2093 63.8664,31.9043 61.6074,29.5363 C59.4214,27.2453 58.1674,24.1373 58.1674,21.0063 C58.1674,17.7843 59.3884,14.7623 61.6064,12.4963 C63.8414,10.2123 66.8464,8.9543 70.0714,8.9543 C73.2964,8.9543 76.3014,10.2123 78.5364,12.4963 C80.7544,14.7623 81.9754,17.7843 81.9754,21.0063 C81.9754,24.1373 80.7224,27.2453 78.5364,29.5363" id="Fill-1" fill="#5940C3"></path>
            <path d="M104.1944,11.8178 C101.1114,11.8178 98.4214,12.7988 96.3524,14.6688 L96.3524,12.2128 L91.7594,12.2128 L91.7594,37.7798 L96.3524,37.7798 L96.3524,24.2068 C96.3524,21.5568 97.0664,19.5278 98.4714,18.1708 C99.8154,16.8728 101.7294,16.2438 104.1944,16.2968 C108.2224,16.2968 110.2644,18.6348 110.2644,23.2478 L110.2644,37.7798 L114.8574,37.7798 L114.8574,23.2478 C114.8574,15.2368 111.6684,11.8178 104.1944,11.8178" id="Fill-3" fill="#5940C3"></path>
            <path d="M131.5099,11.8451 C124.1299,11.8451 118.1229,17.7811 118.1229,25.0791 C118.1229,32.3141 124.2549,38.4271 131.5099,38.4271 C136.6149,38.4271 141.3409,35.5321 143.5459,31.0521 L143.8139,30.5071 L138.2799,30.5071 L138.1649,30.6561 C136.5189,32.7471 134.0929,33.9481 131.5099,33.9481 C127.5639,33.9481 124.1139,31.1391 123.1449,27.2051 L144.8959,27.2051 L144.8959,25.0791 C144.8959,17.7811 138.8909,11.8451 131.5099,11.8451 M131.5099,16.3241 C135.4209,16.3241 138.8639,19.0371 139.8669,22.8401 L123.1529,22.8401 C124.1599,18.9791 127.5339,16.3241 131.5099,16.3241" id="Fill-5" fill="#5940C3"></path>
            <path d="M161.5216,17.8392 C156.1336,16.8042 153.9366,15.3992 153.9366,12.9852 C153.9366,10.5192 156.7686,8.7292 160.6686,8.7292 C164.3356,8.7292 167.0086,10.2302 167.4786,12.5522 L167.4956,12.6282 L172.3076,12.6282 L172.2966,12.5252 C171.7456,7.3162 167.0736,3.8172 160.6686,3.8172 C152.0856,3.8172 149.0406,8.7562 149.0406,12.9852 C149.0406,18.2202 152.5126,21.1412 160.6506,22.7482 C167.0226,24.0092 168.7666,25.1492 168.7666,28.0542 C168.7666,31.0462 165.4386,33.1352 160.6686,33.1352 C156.5966,33.1352 153.0386,30.8962 152.5696,28.0392 L152.5566,27.9602 L147.7456,27.9602 L147.7506,28.0602 C148.0646,34.0332 153.2556,38.0472 160.6686,38.0472 C168.6366,38.0472 173.5876,34.2182 173.5876,28.0542 C173.5876,22.5232 170.0916,19.5632 161.5216,17.8392" id="Fill-7" fill="#5940C3"></path>
            <path d="M191.3468,11.8451 C187.9328,11.8451 184.6738,13.2361 182.2588,15.6911 L182.2588,12.2391 L177.6698,12.2391 L177.6698,49.0831 L182.2588,49.0831 L182.2588,34.4831 C184.6798,37.0001 187.9408,38.4271 191.3468,38.4271 C198.6058,38.4271 204.7398,32.3141 204.7398,25.0791 C204.7398,17.7811 198.7308,11.8451 191.3468,11.8451 M191.4598,33.9481 C186.6808,33.9481 182.4868,29.8031 182.4868,25.0791 C182.4868,20.3331 186.5958,16.3241 191.4598,16.3241 C196.2388,16.3241 199.9798,20.1701 199.9798,25.0791 C199.9798,29.9691 196.1588,33.9481 191.4598,33.9481" id="Fill-9" fill="#5940C3"></path>
            <path d="M229.3018,15.6908 C226.8898,13.2358 223.6278,11.8428 220.2138,11.8428 C212.8288,11.8428 206.8228,17.7808 206.8228,25.0798 C206.8228,32.3148 212.9548,38.4258 220.2138,38.4258 C223.6218,38.4258 226.8808,37.0018 229.3018,34.4828 L229.3018,37.9188 L233.8908,37.9188 L233.8908,12.2388 L229.3018,12.2388 L229.3018,15.6908 Z M220.0998,16.3228 C224.9648,16.3228 229.0728,20.3338 229.0728,25.0798 C229.0728,29.8028 224.8808,33.9478 220.0998,33.9478 C215.4038,33.9478 211.5808,29.9688 211.5808,25.0798 C211.5808,20.1698 215.3238,16.3228 220.0998,16.3228 Z" id="Fill-11" fill="#5940C3"></path>
            <path d="M252.1056,11.8441 C249.0256,11.8441 246.3376,12.8251 244.2716,14.6951 L244.2716,12.2391 L239.6836,12.2391 L239.6836,37.8071 L244.2716,37.8071 L244.2716,24.2341 C244.2716,21.5841 244.9846,19.5541 246.3876,18.1981 C247.7316,16.9001 249.6426,16.2711 252.1056,16.3231 C256.1286,16.3231 258.1696,18.6621 258.1696,23.2741 L258.1696,37.8071 L262.7586,37.8071 L262.7586,23.2741 C262.7586,15.2631 259.5726,11.8441 252.1056,11.8441" id="Fill-13" fill="#5940C3"></path>
            <g id="Group-17" transform="translate(262.000000, 3.302900)">
                <mask id="mask-2" fill="white">
                    <use xlink:href="#path-1"></use>
                </mask>
                <g id="Clip-16"></g>
                <path d="M62.5851,45.1848 C61.4371,46.2668 59.4781,48.5728 57.9681,48.8278 C55.2171,49.2908 55.8861,47.5608 56.8431,45.7848 C58.4661,42.7718 61.8061,40.1308 64.1591,37.8918 C66.6891,35.4848 69.3801,33.3228 72.1911,31.3938 C69.8421,37.1048 64.9991,42.9128 62.5851,45.1848 M64.2681,24.2608 C62.9961,25.0898 58.7171,28.3108 57.7141,27.8108 C53.2511,25.5848 58.7681,21.7748 59.9931,21.0598 C62.9291,19.3478 65.9861,19.3578 69.0351,20.5218 C69.1041,20.5478 69.1681,20.5568 69.2341,20.5738 C67.6341,21.8948 65.9901,23.1368 64.2681,24.2608 M12.9571,37.5458 C12.1721,38.1448 6.7021,41.1218 5.6681,39.8448 C4.2451,38.0888 10.3081,34.9658 16.7081,32.2138 C16.2521,34.4848 14.8211,36.1238 12.9571,37.5458 M112.9751,24.4138 C112.5971,24.5098 109.1721,25.9598 107.7021,26.5068 C108.8491,23.2618 109.5891,19.4798 105.6631,18.9488 C102.0321,18.4568 97.7561,21.1408 93.9961,23.8508 C94.5091,22.3948 94.4621,20.9428 92.8831,19.5498 C89.8451,16.8728 84.1951,20.7508 81.3181,22.0588 C79.8071,22.7458 78.2641,23.5128 76.7111,24.3388 C76.5461,22.1068 75.8051,20.0228 74.2571,18.2478 C73.5671,17.4568 72.6311,17.6048 71.9261,18.2478 C71.6261,18.5218 71.3191,18.7828 71.0181,19.0498 C71.1511,18.1708 70.8441,17.1858 69.9111,16.8298 C65.5211,15.1528 60.9391,15.7358 56.9991,18.6308 C54.8781,20.1908 52.1841,22.9078 51.7351,26.0158 C49.8711,27.2458 47.7551,28.5188 45.6181,28.5938 C40.8071,28.7618 40.2111,24.4648 40.9131,20.3088 C41.1901,18.6628 39.8121,17.3388 38.4911,18.1468 L38.4891,18.1478 L34.7771,20.6398 C29.8921,23.0198 24.7001,24.7418 19.6211,26.6788 C19.3171,25.6408 18.9021,24.6048 18.3631,23.5868 C14.8881,17.0398 12.1621,10.7098 19.1621,6.3178 C21.3501,4.9448 27.1191,3.2998 29.9391,4.2418 C33.7721,5.5208 32.1371,9.7078 29.2891,12.0348 C27.4511,13.5358 30.0721,16.1298 31.8961,14.6408 C36.1251,11.1868 38.9611,3.5408 31.9441,0.8488 C23.7691,-2.2912 11.2821,4.2058 10.4681,13.0588 C10.0751,17.3318 11.0721,18.6318 13.2041,22.1508 C14.2941,23.9488 15.6521,25.8898 16.3711,27.9698 C12.3141,29.6468 8.3891,31.5818 4.8201,34.2508 C2.6941,35.8418 -1.0069,38.0448 0.5041,41.2678 C2.1571,44.7938 7.9621,43.6808 10.8561,42.8008 C17.0251,40.9238 20.2161,36.1048 20.2191,30.7488 C24.4611,29.0218 28.2621,27.6088 29.4181,27.0458 C29.4361,27.0378 29.4581,27.0238 29.4771,27.0138 C32.1461,25.8798 34.7461,24.5748 37.2961,23.1318 C37.1501,26.4608 37.7871,29.6808 40.6141,31.5468 C44.2561,33.9518 48.7911,32.0998 52.3951,29.9358 C55.6831,36.3828 67.9751,26.4848 72.8011,22.2568 C73.3841,23.4158 73.5921,24.7288 73.5161,26.1288 C65.5521,30.8438 57.6981,37.3408 52.7601,45.3618 C51.0761,48.0958 50.4221,52.1918 53.8121,53.6718 C57.6851,55.3638 62.7491,50.0878 65.4071,47.4558 C69.0891,43.8088 74.8561,36.0398 76.3741,28.7518 C77.4411,28.1338 78.5191,27.5388 79.6121,26.9858 C80.7531,26.4088 89.4551,21.6278 90.3011,22.5518 C90.7801,23.0748 88.1931,27.6588 88.0231,28.7548 C87.7741,30.3588 89.1171,31.7858 90.4451,30.9168 C92.9981,29.2478 95.4621,27.3628 98.0641,25.7998 C101.0081,24.0338 106.3991,20.5978 103.7781,27.3768 C103.2451,28.7568 103.8841,30.1218 105.2021,30.2578 C106.4631,30.3148 112.7131,28.3788 114.2031,27.7028 C114.3901,27.5168 117.2411,22.2848 112.9751,24.4138" id="Fill-15" fill="#5940C3" mask="url(#mask-2)"></path>
            </g>
            <path d="M304.2774,16.476 C306.1044,16.008 307.7004,15.622 308.0874,15.427 C310.0064,14.38 308.9364,11.509 306.4234,12.122 C306.4234,12.122 305.8144,12.331 304.2164,12.816 C302.2334,13.445 303.0564,17.218 304.2774,16.476" id="Fill-18" fill="#5940C3"></path>
            <g id="Group-22" transform="translate(0.000000, 6.302900)">
                <mask id="mask-4" fill="white">
                    <use xlink:href="#path-3"></use>
                </mask>
                <g id="Clip-21"></g>
                <path d="M36.9967,15.5051 C36.4027,12.0451 34.8527,8.9131 32.6337,6.3851 C29.2197,2.4981 24.2167,0.0411 18.6357,0.0411 C11.8477,0.0411 6.3437,5.5441 6.3437,12.3321 C6.3437,13.4301 6.4897,14.4921 6.7597,15.5051 C8.1587,10.2541 12.9447,6.3851 18.6357,6.3851 C24.3267,6.3851 29.1127,10.2541 30.5117,15.5051 C30.7817,16.5171 30.9267,17.5791 30.9267,18.6771 C30.9267,25.4651 25.4237,30.9681 18.6357,30.9681 C12.9807,30.9681 7.9197,28.4461 4.5037,24.4701 C2.3557,21.9691 0.8557,18.8951 0.2747,15.5051 C0.0977,14.4731 -0.0003,13.4141 -0.0003,12.3321 L-0.0003,18.6771 C-0.0003,21.9661 0.8547,25.0541 2.3507,27.7351 C5.5347,33.4471 11.6327,37.3131 18.6357,37.3131 C25.9637,37.3131 32.3017,33.0801 35.3457,26.9281 C36.5767,24.4411 37.2707,21.6401 37.2707,18.6771 C37.2707,17.5951 37.1737,16.5361 36.9967,15.5051" id="Fill-20" fill="#5940C3" mask="url(#mask-4)"></path>
            </g>
            <path d="M36.296,12.6879 C33.813,5.3129 26.847,-0.0001 18.635,-0.0001 C12.546,-0.0001 7.139,2.9219 3.738,7.4389 C1.392,10.5569 0,14.4329 0,18.6349 C0,19.7169 0.097,20.7759 0.275,21.8079 C0.856,25.1979 2.356,28.2719 4.504,30.7729 C7.92,34.7499 12.981,37.2709 18.635,37.2709 C25.424,37.2709 30.927,31.7679 30.927,24.9799 C30.927,23.8819 30.781,22.8199 30.512,21.8079 C29.113,27.0579 24.327,30.9269 18.635,30.9269 C12.944,30.9269 8.158,27.0579 6.759,21.8079 C6.49,20.7949 6.344,19.7329 6.344,18.6349 C6.344,11.8469 11.847,6.3439 18.635,6.3439 C24.216,6.3439 29.219,8.8009 32.633,12.6879 C34.853,15.2159 36.403,18.3479 36.997,21.8079 C37.174,22.8389 37.271,23.8979 37.271,24.9799 L37.271,18.6349 C37.271,16.5549 36.925,14.5559 36.296,12.6879" id="Fill-23" fill="#968BFF"></path>
        </g>
    </g>
</svg>