<svg width="8" height="39" xmlns="http://www.w3.org/2000/svg">
  <path d="M2.87796074 14.5c0 .275-.21584706.5-.47966013.5H.47966018C.21584707 15 0 14.775 0 14.5v-2c0-.275.21584706-.5.47966012-.5h1.9186405c.26381306 0 .47966012.225.47966012.5v2zm0-6c0 .275-.21584706.5-.47966013.5H.47966018C.21584707 9 0 8.775 0 8.5v-2c0-.275.21584706-.5.47966012-.5h1.9186405c.26381306 0 .47966012.225.47966012.5v2zm0-6c0 .275-.21584706.5-.47966013.5H.47966018C.21584707 3 0 2.775 0 2.5v-2C0 .225.21584706 0 .47966012 0h1.9186405c.26381306 0 .47966012.225.47966012.5v2zm4.79660123 12c0 .275-.21584706.5-.47966013.5h-1.9186405c-.26381306 0-.4796601-.225-.4796601-.5v-2c0-.275.21584704-.5.4796601-.5h1.9186405c.26381307 0 .47966013.225.47966013.5v2zm0-6c0 .275-.21584706.5-.47966013.5h-1.9186405c-.26381306 0-.4796601-.225-.4796601-.5v-2c0-.275.21584704-.5.4796601-.5h1.9186405c.26381307 0 .47966013.225.47966013.5v2zm0-6c0 .275-.21584706.5-.47966013.5h-1.9186405c-.26381306 0-.4796601-.225-.4796601-.5v-2c0-.275.21584704-.5.4796601-.5h1.9186405c.26381307 0 .47966013.225.47966013.5v2zm-4.79660123 30c0 .275-.21584706.5-.47966013.5H.47966018C.21584707 33 0 32.775 0 32.5v-2c0-.275.21584706-.5.47966012-.5h1.9186405c.26381306 0 .47966012.225.47966012.5v2zm0-6c0 .275-.21584706.5-.47966013.5H.47966018C.21584707 27 0 26.775 0 26.5v-2c0-.275.21584706-.5.47966012-.5h1.9186405c.26381306 0 .47966012.225.47966012.5v2zm0-6c0 .275-.21584706.5-.47966013.5H.47966018C.21584707 21 0 20.775 0 20.5v-2c0-.275.21584706-.5.47966012-.5h1.9186405c.26381306 0 .47966012.225.47966012.5v2zm0 18c0 .275-.21584706.5-.47966013.5H.47966018C.21584707 39 0 38.775 0 38.5v-2c0-.275.21584706-.5.47966012-.5h1.9186405c.26381306 0 .47966012.225.47966012.5v2zm4.79660123 0c0 .275-.21584706.5-.47966013.5h-1.9186405c-.26381306 0-.4796601-.225-.4796601-.5v-2c0-.275.21584704-.5.4796601-.5h1.9186405c.26381307 0 .47966013.225.47966013.5v2zm0-6c0 .275-.21584706.5-.47966013.5h-1.9186405c-.26381306 0-.4796601-.225-.4796601-.5v-2c0-.275.21584704-.5.4796601-.5h1.9186405c.26381307 0 .47966013.225.47966013.5v2zm0-6c0 .275-.21584706.5-.47966013.5h-1.9186405c-.26381306 0-.4796601-.225-.4796601-.5v-2c0-.275.21584704-.5.4796601-.5h1.9186405c.26381307 0 .47966013.225.47966013.5v2zm0-6c0 .275-.21584706.5-.47966013.5h-1.9186405c-.26381306 0-.4796601-.225-.4796601-.5v-2c0-.275.21584704-.5.4796601-.5h1.9186405c.26381307 0 .47966013.225.47966013.5v2z" fill="#FF7A00" fill-rule="evenodd"/>
</svg>
