<svg width="8" height="40" xmlns="http://www.w3.org/2000/svg">
  <path d="M2.87796074 15c0 .275-.21584706.5-.47966013.5H.47966015C.21584704 15.5 0 15.275 0 15v-2c0-.275.21584706-.5.47966012-.5h1.9186405c.26381306 0 .47966012.225.47966012.5v2zm0-6c0 .275-.21584706.5-.47966013.5H.47966015C.21584704 9.5 0 9.275 0 9V7c0-.275.21584706-.5.47966012-.5h1.9186405c.26381306 0 .47966012.225.47966012.5v2zm0-6c0 .275-.21584706.5-.47966013.5H.47966015C.21584704 3.5 0 3.275 0 3V1C0 .725.21584706.5.47966012.5h1.9186405c.26381306 0 .47966012.225.47966012.5v2zm4.79660123 12c0 .275-.21584706.5-.47966013.5h-1.9186405c-.26381306 0-.4796601-.225-.4796601-.5v-2c0-.275.21584704-.5.4796601-.5h1.9186405c.26381307 0 .47966013.225.47966013.5v2zm0-6c0 .275-.21584706.5-.47966013.5h-1.9186405c-.26381306 0-.4796601-.225-.4796601-.5V7c0-.275.21584704-.5.4796601-.5h1.9186405c.26381307 0 .47966013.225.47966013.5v2zm0-6c0 .275-.21584706.5-.47966013.5h-1.9186405c-.26381306 0-.4796601-.225-.4796601-.5V1c0-.275.21584704-.5.4796601-.5h1.9186405c.26381307 0 .47966013.225.47966013.5v2zM2.87796074 33c0 .275-.21584706.5-.47966013.5H.47966015C.21584704 33.5 0 33.275 0 33v-2c0-.275.21584706-.5.47966012-.5h1.9186405c.26381306 0 .47966012.225.47966012.5v2zm0-6c0 .275-.21584706.5-.47966013.5H.47966015C.21584704 27.5 0 27.275 0 27v-2c0-.275.21584706-.5.47966012-.5h1.9186405c.26381306 0 .47966012.225.47966012.5v2zm0-6c0 .275-.21584706.5-.47966013.5H.47966015C.21584704 21.5 0 21.275 0 21v-2c0-.275.21584706-.5.47966012-.5h1.9186405c.26381306 0 .47966012.225.47966012.5v2zm0 18c0 .275-.21584706.5-.47966013.5H.47966015C.21584704 39.5 0 39.275 0 39v-2c0-.275.21584706-.5.47966012-.5h1.9186405c.26381306 0 .47966012.225.47966012.5v2zm4.79660123 0c0 .275-.21584706.5-.47966013.5h-1.9186405c-.26381306 0-.4796601-.225-.4796601-.5v-2c0-.275.21584704-.5.4796601-.5h1.9186405c.26381307 0 .47966013.225.47966013.5v2zm0-6c0 .275-.21584706.5-.47966013.5h-1.9186405c-.26381306 0-.4796601-.225-.4796601-.5v-2c0-.275.21584704-.5.4796601-.5h1.9186405c.26381307 0 .47966013.225.47966013.5v2zm0-6c0 .275-.21584706.5-.47966013.5h-1.9186405c-.26381306 0-.4796601-.225-.4796601-.5v-2c0-.275.21584704-.5.4796601-.5h1.9186405c.26381307 0 .47966013.225.47966013.5v2zm0-6c0 .275-.21584706.5-.47966013.5h-1.9186405c-.26381306 0-.4796601-.225-.4796601-.5v-2c0-.275.21584704-.5.4796601-.5h1.9186405c.26381307 0 .47966013.225.47966013.5v2z" fill="#DDD" fill-rule="evenodd"/>
</svg>
