<svg xmlns="http://www.w3.org/2000/svg" viewBox="0 0 116.7 40">
  <path fill="#FAA81B" d="M10.8 15.1l-.2.1c-.4.2-1 .2-1.7.2l-5.6-.1v.9c0 1.2.4 2.2 1.1 2.9.7.7 1.5 1.1 2.4 1.1.7 0 1.5-.2 2.3-.5.8-.3 1.4-1 2-1.8.1.5.1 1.1 0 1.5-.1.5-.4.9-.7 1.3-.4.4-.8.7-1.3.9-.5.3-1 .5-1.6.6-.6.1-1.2.2-1.8.2-.8 0-1.5-.1-2.1-.4-.7-.2-1.2-.6-1.8-1.1-.5-.5-1-1.1-1.3-1.9-.3-.6-.5-1.6-.5-2.6 0-1.4.2-2.6.7-3.7.5-1.1 1.1-2 2-2.6.9-.7 1.9-1 3-1 .7 0 1.3.1 1.8.2.5.2 1 .4 1.3.6.3.2.6.5.9.9.3.4.4.7.6 1 .1.3.2.7.3 1.1.1.4.1.7.1.9v1.3zm-5.2-4.5c-.3 0-.6.1-.9.3-.3.2-.5.4-.7.8-.2.4-.3.7-.5 1.1-.1.4-.2.8-.3 1.4.5 0 1.2 0 2.2-.1 1 0 1.7-.1 2.3-.1 0-.4-.1-.8-.1-1.2-.1-.4-.2-.7-.4-1.1-.2-.3-.4-.6-.7-.8-.2-.2-.5-.3-.9-.3zm61 12.3h-3.5v-7.7c0-1.2-.1-2.1-.3-2.7-.2-.6-.6-.8-1.2-.8-.7 0-1.3.1-1.7.3-.5.2-.9.5-1.4.9 0 4.1 0 6.7.1 7.8.1.9.1 1.6.2 2.1H55V22l.1-8.1c0-.7-.1-1.2-.2-1.7s-.3-.8-.5-1c-.2-.2-.3-.3-.5-.4l-.2-.1v-.5c1-.6 1.9-.9 2.8-.9.5 0 .9.1 1.2.4.3.3.5.6.5 1v.7l.8-.8c.3-.2.6-.5 1-.7.4-.3.8-.5 1.2-.6.4-.1.9-.2 1.3-.2 1.1 0 1.9.3 2.6 1 .7.7 1 1.5 1 2.4v5.4c.2 2.1.3 3.7.5 5z"/>
  <path d="M110.4 15.4l-.2.1c-.4.2-1 .2-1.7.2l-5.7-.1v.9c0 1.2.4 2.2 1.1 2.9.7.7 1.5 1.1 2.4 1.1.7 0 1.5-.2 2.3-.5.8-.3 1.4-1 2-1.8.1.5.1 1.1 0 1.6s-.4.9-.7 1.3c-.4.4-.8.7-1.3.9-.5.3-1 .5-1.6.6-.6.1-1.2.2-1.8.2-.8 0-1.5-.1-2.1-.4-.7-.2-1.2-.6-1.8-1.1-.5-.5-1-1.1-1.3-1.9-.3-.8-.5-1.7-.5-2.8 0-1.4.2-2.6.7-3.7.5-1.1 1.1-2 2-2.6.9-.7 1.9-1 3-1 .7 0 1.3.1 1.8.2.5.2 1 .4 1.3.6.3.2.6.5.9.9.3.4.4.7.6 1 .1.3.2.7.3 1.1.1.4.1.7.1.9v1.4zm-5.2-4.4c-.3 0-.6.1-.9.3-.3.2-.5.5-.7.8-.2.4-.3.7-.5 1.1-.1.4-.2.8-.3 1.4.5 0 1.2 0 2.2-.1 1 0 1.8-.1 2.3-.1 0-.4-.1-.8-.1-1.2-.1-.4-.2-.7-.4-1.1-.2-.3-.4-.6-.7-.8-.2-.2-.5-.3-.9-.3zm-36 11.9c0-1.1.1-5.8.1-13.9 0-.5 0-.9-.1-1.2 0-.3-.1-.6-.2-.7-.1-.2-.1-.3-.2-.5-.1-.1-.2-.3-.2-.4l.2-.5.3-.1c.2-.1.5-.1.9-.2s.8-.1 1.1-.1c.9 0 1.5.1 2 .3-.2 3.2-.3 6.6-.3 10.3 0 2.6 0 4.3.1 5.3h2.6c.6 0 1.3-.1 1.9-.4.6-.3.9-.6 1-1h.6c.2.5.3 1 .2 1.6-.1.6-.3 1.1-.5 1.5h-9.5zm15.5-5.6c0 2.4.1 4.3.3 5.7h-3.6l.1-8.9c0-.5 0-1-.1-1.4-.1-.4-.2-.7-.3-.9-.1-.2-.2-.4-.4-.5-.1-.1-.3-.2-.3-.2h-.2v-.5c1-.6 1.9-.9 2.8-.9 1.3 0 1.9.8 1.9 2.5 0 .3 0 .7-.1 1.3 0 .6-.1 1.1-.1 1.4v2.4zM81 6.2c0-.5.2-.9.5-1.3.4-.4.8-.5 1.3-.5s.9.2 1.2.5c.3.4.5.8.5 1.3s-.2.9-.5 1.2c-.3.4-.7.6-1.1.6-.5 0-.9-.2-1.3-.5-.4-.4-.6-.8-.6-1.3zm17.5 6.4L94.9 21l-.6 2.1-.9-.2c-.6-.1-1.1-.4-1.4-.8-.3-.4-.5-.8-.6-1.1l-2.2-7c-.2-.6-.4-1.2-.7-1.7-.2-.5-.5-.8-.7-1l-.5-.5c-.1-.1-.2-.1-.3-.2v-.5c.3-.2.7-.4 1.1-.6.4-.2.8-.2 1.2-.2.7 0 1.2.2 1.6.5.3.3.6.9.8 1.6.2 1 .8 3 2 6.2l.3.6c.2.4.3.6.3.7l.1-.5c.1-.4.1-.6.2-.9l1.7-4.5c.2-.6.3-1.2.3-1.6 0-.4-.1-.7-.4-.8v-.5c.2-.2.6-.4.9-.6.4-.2.8-.2 1.1-.2.6 0 .9.3.9.9 0 .6-.2 1.4-.6 2.4z"/>
  <path fill="#FAA81B" d="M38.2 17.2c0 2.4.1 4.3.3 5.7h-3.6L35 14c0-.5 0-1-.1-1.4-.1-.4-.2-.7-.3-.9-.1-.2-.2-.4-.4-.5-.1-.1-.3-.2-.3-.2h-.2v-.5c1-.6 1.9-.9 2.8-.9 1.3 0 1.9.8 1.9 2.5 0 .3 0 .7-.1 1.3 0 .6-.1 1.1-.1 1.4v2.4zM34.6 6.1c0-.5.2-.9.5-1.3.4-.4.8-.5 1.3-.5s.9.2 1.2.5c.3.4.5.8.5 1.3s-.2.9-.5 1.2c-.3.3-.8.5-1.2.5-.5 0-.9-.2-1.3-.5s-.5-.7-.5-1.2zm8.8 14.5c0 .3.1.5.3.6.2.1.5.2.8.3.4.1.8.1 1.2.1.5 0 .9 0 1.4.1.5 0 1 0 1.5.1.5 0 1 .1 1.4.3.5.1.9.3 1.2.6.4.2.6.6.8 1 .2.4.3.9.3 1.5 0 .9-.3 1.7-1 2.4-.4.6-1.3 1.1-2.3 1.4-1 .3-2 .5-3.1.5-1 0-2-.1-2.8-.3-.9-.2-1.6-.6-2.1-1-.6-.5-.8-1-.8-1.7 0-.5.2-.9.5-1.1.4-.3.8-.4 1.2-.4.6 0 1.1.2 1.6.7-.1.2-.1.4-.1.7 0 .6.3 1 .8 1.4.5.3 1.2.5 1.9.5.9 0 1.7-.2 2.4-.7.7-.4 1.1-1 1.1-1.7 0-.2 0-.3-.1-.5-.1-.1-.2-.3-.3-.3-.1-.1-.3-.2-.4-.2-.2-.1-.4-.1-.6-.2-.2 0-.4-.1-.6-.1h-1.4c-.5 0-.9 0-1.2-.1-.4 0-.7-.1-1.2-.2-.4-.1-.8-.2-1.1-.3-.3-.1-.6-.3-.8-.5-.3-.2-.5-.4-.6-.7-.1-.3-.2-.6-.2-1 0-.6.2-1.1.5-1.5.4-.4.8-.8 1.5-1.1-.7-.4-1.3-1-1.7-1.7-.5-.7-.7-1.6-.7-2.5 0-1 .2-1.9.7-2.7.5-.8 1.1-1.5 2-2 .9-.5 1.8-.8 2.9-.8 1.1 0 2.1.3 2.9.9l.5-.5h2.4c.1 0 .2-.1.4-.1.2-.1.3-.2.5-.4.1.4.2.7.2.9 0 .4-.2.8-.5 1-.3.2-.7.3-1.2.3-.4 0-.8-.1-1.2-.3-.2-.1-.3-.1-.3-.1 1 1 1.6 2.1 1.6 3.4 0 .8-.2 1.6-.5 2.3-.3.7-.7 1.2-1.3 1.7-.5.4-1.1.8-1.8 1-.6.3-1.3.4-2 .4s-1.4-.1-2.1-.3c-.3.3-.5.6-.5.9zm2.4-9.7c-.4 0-.7.2-1 .5-.3.3-.5.8-.7 1.2-.1.5-.2.9-.2 1.4 0 1.4.2 2.6.6 3.5.4.9 1 1.3 1.8 1.3.5 0 1-.3 1.4-.8.4-.6.6-1.3.6-2.2 0-1.5-.2-2.6-.7-3.5-.4-.9-1-1.4-1.8-1.4z"/>
  <path fill="#FAA81B" d="M16.9 4.6c-.2.4-.3.9-.2 1.5.1.6.3 1.3.6 2s.7 1.5 1.2 2.4c.5.8 1 1.7 1.6 2.5.8 1.2 1.6 2.3 2.5 3.4.9 1.1 1.7 2.1 2.5 2.9.8.9 1.4 1.5 2 2.1.6.5.9.8 1.1.8 1.4.3 2.7.6 3.9.9 1.2.3 2.2.7 3.1 1.1.9.4 1.7.7 2.3 1.1.7.4 1.2.7 1.6 1l.3.3c.1.1.1.3 0 .5 0 .2-.1.3-.2.4-.1.1-.2.1-.4.1-.5-.3-1.1-.6-1.8-1s-1.4-.7-2.2-1.1c-.8-.4-1.7-.7-2.6-1-.9-.3-1.9-.5-2.9-.6 1.4 2.2 2 4.1 2.1 5.8 0 1.7-.4 3.2-1.4 4.4-.9 1.3-2.2 2.3-3.8 3.2-1.6.8-3.4 1.5-5.4 2-1.9.5-3.9.7-5.9.8-2 .1-3.9.1-5.6-.2-1.1-.1-2.2-.4-3.3-.8-1.2-.4-2.2-1-3-1.8-.9-.7-1.5-1.6-1.8-2.6-.3-1-.2-2.2.4-3.5.8-1.7 2-3.1 3.7-4.3 1.7-1.1 3.5-2 5.5-2.7 2-.7 4.1-1.2 6.3-1.6 2.1-.3 4.1-.6 5.9-.6-1.8-1.8-3.3-3.4-4.5-4.9-1.2-1.5-2.2-2.9-3-4.1-.7-1.1-1.3-2.1-1.7-3-.4-.9-.7-1.7-.9-2.4-.2-.7-.3-1.3-.2-1.8 0-.5.1-.9.2-1.2.5-1.2 1.2-2.1 2.3-2.8 1-.7 2.2-1.2 3.6-1.5 1.3-.3 2.7-.3 4-.2 1.4.2 2.6.5 3.8 1.1.7.3 1.2.7 1.7 1.2s.9 1.1 1.2 1.6c.3.6.5 1.2.6 1.8.1.6 0 1.2-.1 1.8-.1.3-.2.5-.4.6-.2.1-.4.1-.6.1-.2 0-.4-.2-.5-.3-.1-.2-.2-.4-.1-.7 0-.9-.2-1.8-.5-2.5-.4-.8-1.1-1.5-2.2-2.1-.9-.5-1.7-.7-2.5-.7-.9-.1-1.7 0-2.5.2s-1.6.5-2.3.9c-.7.4-1.2.9-1.5 1.5zM3.1 31.8c-.3.8-.3 1.6-.1 2.3.2.8.6 1.4 1.2 2 .6.6 1.4 1 2.3 1.4 1 .4 2.1.5 3.3.5 3.1-.1 5.8-.5 8.3-1.4 2.4-.8 4.3-2 5.7-3.4 1.2-1.3 1.9-2.7 2-4.4.1-1.6-.5-3.4-1.8-5.3-.9 0-2 0-3.3.1-1.3.1-2.6.3-4 .5-1.4.3-2.9.6-4.3 1-1.5.4-2.8 1-4 1.6C7 27.5 5.9 28.2 5 29c-.9.8-1.6 1.8-1.9 2.8z"/>
  <path d="M110.9 9.7v-.3h2.2v.3h-.9v2.8h-.4V9.7h-.9zm4.2 2.8h-.4L114 10v-.3l-.5 2.7h-.3v-.2l.5-2.8c0-.1.1-.1.3-.1.1 0 .1 0 .2.1l.6 2.2.1.4.1-.4.6-2.1c0-.1.1-.1.3-.1.1 0 .2 0 .2.1l.5 2.8v.2s-.1.1-.3 0l-.4-2.5v-.3l-.8 2.8z"/>
</svg>
